#N canvas 592 67 350 481 10;
#N canvas 0 22 450 300 gemwin 0;
#X obj 132 136 gemwin;
#X obj 67 89 outlet;
#X obj 67 10 inlet;
#X msg 67 70 set destroy;
#X msg 132 112 create \, 1;
#X msg 198 112 destroy;
#X msg 156 71 set create;
#X obj 67 41 route create;
#X connect 2 0 7 0;
#X connect 3 0 1 0;
#X connect 4 0 0 0;
#X connect 5 0 0 0;
#X connect 6 0 1 0;
#X connect 7 0 3 0;
#X connect 7 0 4 0;
#X connect 7 1 6 0;
#X connect 7 1 5 0;
#X restore 206 92 pd gemwin;
#X msg 205 61 destroy;
#X text 203 40 Create window:;
#X obj 9 -1 gemhead;
#X obj 9 26 pix_video;
#X obj 23 294 pix_texture;
#X floatatom 72 257 5 0 0 0 - - -;
#X floatatom 246 255 5 0 0 0 - - -;
#X obj 55 143 pix_blob;
#X floatatom 135 256 5 0 0 0 - - -;
#X obj 137 353 noteout 1;
#X obj 222 354 noteout 2;
#X obj 208 204 * 127;
#X obj 138 205 * 127;
#X obj 73 204 * 64;
#X obj 26 366 rectangle 4 3;
#X obj 155 129 hsl 128 15 0.001 0.2 0 1 empty empty empty -2 -8 0 10
-262144 -1 -1 0 0;
#X obj 10 64 alpha;
#X obj 5 100 pix_movement2;
#X connect 0 0 1 0;
#X connect 1 0 0 0;
#X connect 3 0 4 0;
#X connect 4 0 17 0;
#X connect 5 0 15 0;
#X connect 8 1 14 0;
#X connect 8 2 13 0;
#X connect 8 3 12 0;
#X connect 12 0 7 0;
#X connect 12 0 10 1;
#X connect 12 0 11 1;
#X connect 13 0 11 0;
#X connect 13 0 9 0;
#X connect 14 0 6 0;
#X connect 14 0 10 0;
#X connect 16 0 18 1;
#X connect 17 0 18 0;
#X connect 18 0 8 0;
#X connect 18 0 5 0;
